<svg width="113" height="95" viewBox="0 0 113 95" fill="none" xmlns="http://www.w3.org/2000/svg">
<path d="M105.938 25.3333H84.75V15.8333C84.75 7.087 65.7801 0 42.375 0C18.9699 0 0 7.087 0 15.8333V79.1667C0 87.913 18.9699 95 42.375 95C65.7801 95 84.75 87.913 84.75 79.1667V69.6667H105.938C107.811 69.6667 109.607 68.9994 110.931 67.8117C112.256 66.6239 113 65.013 113 63.3333V31.6667C113 29.987 112.256 28.3761 110.931 27.1883C109.607 26.0006 107.811 25.3333 105.938 25.3333ZM19.4289 19.2343C15.3468 18.031 12.8749 16.739 11.5472 15.8333C12.8749 14.9277 15.3468 13.6357 19.4289 12.4323C25.8205 10.545 33.9706 9.5 42.375 9.5C50.7794 9.5 58.9295 10.5387 65.3211 12.4323C69.4032 13.6357 71.8751 14.9277 73.2028 15.8333C71.8751 16.739 69.4032 18.031 65.3211 19.2343C58.9295 21.1217 50.7794 22.1667 42.375 22.1667C33.9706 22.1667 25.8205 21.128 19.4289 19.2343ZM98.875 57H84.75V38H98.875V57Z" fill="white"/>
</svg>
