<svg width="100" height="100" viewBox="0 0 100 100" fill="none" xmlns="http://www.w3.org/2000/svg">
<path d="M98.1057 22.6648L51.6175 0.315045C51.1689 0.101958 50.6789 -0.00563968 50.1838 0.000227694C49.6888 0.00609507 49.2014 0.125277 48.7578 0.34894C48.3142 0.572603 47.9257 0.895013 47.6211 1.29227C47.3166 1.68954 47.1037 2.15147 46.9984 2.64383C46.9877 2.68033 43.2688 20.2739 37.746 37.8128C35.8632 43.8246 33.7545 49.767 31.5526 54.9866L37.5236 57.8556C44.6961 40.9118 50.3766 17.5217 52.514 8.16647L92.92 27.5669C91.6792 33.0895 88.4982 46.6315 84.2414 60.1516C81.4907 68.9119 78.2703 77.6612 74.971 83.9942C71.7792 90.5279 67.9491 93.74 67.092 93.3093C61.9996 93.4188 58.4206 88.7029 56.0106 82.6582C54.9969 79.9989 54.2087 77.2562 53.6545 74.4601C53.1954 72.2043 53.0556 70.788 53.0448 70.788C52.9898 70.2168 52.7886 69.6702 52.4614 69.2027C52.1343 68.7351 51.6924 68.3631 51.18 68.1234L4.70252 45.7847C4.17336 45.5289 3.58683 45.4211 3.0032 45.4725C2.41958 45.5238 1.8599 45.7323 1.38168 46.0767C0.905623 46.4228 0.52854 46.8915 0.289073 47.4347C0.0496062 47.978 -0.0436332 48.5763 0.0189105 49.1683C0.0476003 49.3362 0.718224 55.9211 3.41506 62.8089C5.28707 67.627 8.46088 73.0949 13.6215 75.8581L60.0846 98.2333L60.1061 98.1895C62.1215 99.2663 64.4095 99.9671 67.0885 100C73.5329 99.5729 77.0474 93.9116 80.7806 87.1333C91.5393 66.3641 99.8594 26.5412 99.9239 26.3952C100.083 25.6579 99.9909 24.8875 99.6623 24.2107C99.3338 23.5339 98.7885 22.9913 98.1165 22.6721L98.1057 22.6648Z" fill="white"/>
</svg>
