<svg width="30" height="31" viewBox="0 0 30 31" fill="none" xmlns="http://www.w3.org/2000/svg">
<rect x="0.5" y="1" width="29" height="29" rx="14.5" stroke="#FEFEFE"/>
<path d="M18.625 8.75H12.375C10.6491 8.75 9.25 10.1491 9.25 11.875V18.125C9.25 19.8509 10.6491 21.25 12.375 21.25H18.625C20.3509 21.25 21.75 19.8509 21.75 18.125V11.875C21.75 10.1491 20.3509 8.75 18.625 8.75Z" stroke="#FEFEFE" stroke-linecap="round" stroke-linejoin="round"/>
<path d="M17.9998 14.6062C18.0769 15.1263 17.9881 15.6576 17.7459 16.1243C17.5037 16.5911 17.1205 16.9696 16.6508 17.206C16.1811 17.4424 15.6488 17.5247 15.1297 17.4412C14.6105 17.3576 14.1309 17.1125 13.7591 16.7407C13.3873 16.3688 13.1421 15.8892 13.0586 15.3701C12.9751 14.8509 13.0574 14.3186 13.2938 13.8489C13.5302 13.3792 13.9087 12.996 14.3754 12.7538C14.8422 12.5117 15.3734 12.4228 15.8936 12.4999C16.4241 12.5786 16.9153 12.8259 17.2946 13.2051C17.6739 13.5844 17.9211 14.0756 17.9998 14.6062Z" stroke="#FEFEFE" stroke-linecap="round" stroke-linejoin="round"/>
<path d="M18.9375 11.5625H18.9442" stroke="#FEFEFE" stroke-linecap="round" stroke-linejoin="round"/>
</svg>
