<svg width="30" height="30" viewBox="0 0 30 30" fill="none" xmlns="http://www.w3.org/2000/svg">
<rect x="0.5" y="0.5" width="29" height="29" rx="14.5" fill="#0F297E"/>
<rect x="0.5" y="0.5" width="29" height="29" rx="14.5" stroke="white"/>
<path d="M18.9062 10.0687C18.3332 9.49004 17.6506 9.0312 16.8984 8.71895C16.1462 8.4067 15.3394 8.24727 14.525 8.24997C11.1125 8.24997 8.33125 11.0312 8.33125 14.4437C8.33125 15.5375 8.61875 16.6 9.15625 17.5375L8.28125 20.75L11.5625 19.8875C12.4688 20.3812 13.4875 20.6437 14.525 20.6437C17.9375 20.6437 20.7188 17.8625 20.7188 14.45C20.7188 12.7937 20.075 11.2375 18.9062 10.0687ZM14.525 19.5937C13.6 19.5937 12.6937 19.3437 11.9 18.875L11.7125 18.7625L9.7625 19.275L10.2812 17.375L10.1563 17.1812C9.64222 16.3606 9.36933 15.412 9.36875 14.4437C9.36875 11.6062 11.6812 9.29372 14.5187 9.29372C15.8937 9.29372 17.1875 9.83122 18.1562 10.8062C18.636 11.2836 19.0162 11.8516 19.2748 12.4771C19.5333 13.1025 19.6651 13.7732 19.6625 14.45C19.675 17.2875 17.3625 19.5937 14.525 19.5937ZM17.35 15.7437C17.1937 15.6687 16.4312 15.2937 16.2937 15.2375C16.15 15.1875 16.05 15.1625 15.9438 15.3125C15.8375 15.4687 15.5437 15.8187 15.4562 15.9187C15.3687 16.025 15.275 16.0375 15.1187 15.9562C14.9625 15.8812 14.4625 15.7125 13.875 15.1875C13.4125 14.775 13.1062 14.2687 13.0125 14.1125C12.925 13.9562 13 13.875 13.0812 13.7937C13.15 13.725 13.2375 13.6125 13.3125 13.525C13.3875 13.4375 13.4188 13.3687 13.4688 13.2687C13.5188 13.1625 13.4937 13.075 13.4562 13C13.4187 12.925 13.1062 12.1625 12.9812 11.85C12.8562 11.55 12.725 11.5875 12.6312 11.5812H12.3312C12.225 11.5812 12.0625 11.6187 11.9187 11.775C11.7812 11.9312 11.3812 12.3062 11.3812 13.0687C11.3812 13.8312 11.9375 14.5687 12.0125 14.6687C12.0875 14.775 13.1062 16.3375 14.6562 17.0062C15.025 17.1687 15.3125 17.2625 15.5375 17.3312C15.9062 17.45 16.2438 17.4312 16.5125 17.3937C16.8125 17.35 17.4312 17.0187 17.5562 16.6562C17.6875 16.2937 17.6875 15.9875 17.6438 15.9187C17.6 15.85 17.5062 15.8187 17.35 15.7437Z" fill="white"/>
</svg>
