<svg width="30" height="31" viewBox="0 0 30 31" fill="none" xmlns="http://www.w3.org/2000/svg">
<rect x="0.5" y="1" width="29" height="29" rx="14.5" stroke="#FEFEFE"/>
<path d="M18.9062 10.5688C18.3332 9.9901 17.6506 9.53126 16.8984 9.21901C16.1462 8.90676 15.3394 8.74734 14.525 8.75003C11.1125 8.75003 8.33125 11.5313 8.33125 14.9438C8.33125 16.0375 8.61875 17.1 9.15625 18.0375L8.28125 21.25L11.5625 20.3875C12.4688 20.8813 13.4875 21.1438 14.525 21.1438C17.9375 21.1438 20.7188 18.3625 20.7188 14.95C20.7188 13.2938 20.075 11.7375 18.9062 10.5688ZM14.525 20.0938C13.6 20.0938 12.6937 19.8438 11.9 19.375L11.7125 19.2625L9.7625 19.775L10.2812 17.875L10.1563 17.6813C9.64222 16.8607 9.36933 15.9121 9.36875 14.9438C9.36875 12.1063 11.6812 9.79378 14.5187 9.79378C15.8937 9.79378 17.1875 10.3313 18.1562 11.3063C18.636 11.7837 19.0162 12.3516 19.2748 12.9771C19.5333 13.6026 19.6651 14.2732 19.6625 14.95C19.675 17.7875 17.3625 20.0938 14.525 20.0938ZM17.35 16.2438C17.1937 16.1688 16.4312 15.7938 16.2937 15.7375C16.15 15.6875 16.05 15.6625 15.9438 15.8125C15.8375 15.9688 15.5437 16.3188 15.4562 16.4188C15.3687 16.525 15.275 16.5375 15.1187 16.4563C14.9625 16.3813 14.4625 16.2125 13.875 15.6875C13.4125 15.275 13.1062 14.7688 13.0125 14.6125C12.925 14.4563 13 14.375 13.0812 14.2938C13.15 14.225 13.2375 14.1125 13.3125 14.025C13.3875 13.9375 13.4187 13.8688 13.4688 13.7688C13.5188 13.6625 13.4937 13.575 13.4562 13.5C13.4187 13.425 13.1062 12.6625 12.9812 12.35C12.8562 12.05 12.725 12.0875 12.6312 12.0813H12.3312C12.225 12.0813 12.0625 12.1188 11.9187 12.275C11.7812 12.4313 11.3812 12.8063 11.3812 13.5688C11.3812 14.3313 11.9375 15.0688 12.0125 15.1688C12.0875 15.275 13.1062 16.8375 14.6562 17.5063C15.025 17.6688 15.3125 17.7625 15.5375 17.8313C15.9062 17.95 16.2437 17.9313 16.5125 17.8938C16.8125 17.85 17.4312 17.5188 17.5562 17.1563C17.6875 16.7938 17.6875 16.4875 17.6438 16.4188C17.6 16.35 17.5062 16.3188 17.35 16.2438Z" fill="#FEFEFE"/>
</svg>
